<svg width="117" height="117" viewBox="0 0 117 117" fill="none" xmlns="http://www.w3.org/2000/svg">
<rect width="117" height="117" rx="10" fill="#F2F5F8"/>
<path d="M80.95 42.187L80.179 41.416L70.084 31.321L69.313 30.55C68.964 30.201 68.48 30 67.985 30H38.963C37.777 30 36.5 30.916 36.5 32.926V69V85.537V86C36.5 86.837 37.342 87.653 38.338 87.91C38.388 87.923 38.436 87.942 38.488 87.952C38.644 87.983 38.803 88 38.963 88H79.037C79.197 88 79.356 87.983 79.512 87.952C79.564 87.942 79.612 87.923 79.662 87.91C80.658 87.653 81.5 86.837 81.5 86V85.537V69V43.978C81.5 43.211 81.408 42.645 80.95 42.187ZM77.935 42H69.5V33.565L77.935 42ZM38.963 86C38.892 86 38.828 85.974 38.765 85.951C38.609 85.877 38.5 85.721 38.5 85.537V71H79.5V85.537C79.5 85.721 79.391 85.876 79.235 85.951C79.172 85.974 79.108 86 79.037 86H38.963ZM38.5 69V32.926C38.5 32.709 38.533 32 38.963 32H67.558C67.525 32.126 67.5 32.256 67.5 32.391V44H79.109C79.244 44 79.373 43.975 79.499 43.942C79.499 43.957 79.5 43.963 79.5 43.978V69H38.5Z" fill="#B9C2C9"/>
<path d="M53.2352 75.4C52.8112 74.954 52.2782 74.595 51.6352 74.327C50.9922 74.059 50.2472 73.924 49.4002 73.924H46.3652V84H50.1792C50.3062 84 50.5022 83.984 50.7672 83.952C51.0312 83.92 51.3232 83.848 51.6422 83.733C51.9612 83.619 52.2912 83.448 52.6332 83.22C52.9752 82.992 53.2822 82.68 53.5562 82.283C53.8302 81.886 54.0552 81.394 54.2332 80.806C54.4112 80.218 54.5002 79.509 54.5002 78.68C54.5002 78.078 54.3952 77.492 54.1862 76.923C53.9762 76.355 53.6592 75.847 53.2352 75.4ZM52.0392 81.73C51.5472 82.441 50.7452 82.796 49.6332 82.796H48.0062V75.167H48.9632C49.7472 75.167 50.3852 75.27 50.8772 75.475C51.3692 75.68 51.7592 75.949 52.0462 76.282C52.3332 76.615 52.5262 76.986 52.6272 77.396C52.7272 77.806 52.7772 78.221 52.7772 78.64C52.7772 79.989 52.5312 81.02 52.0392 81.73Z" fill="#B9C2C9"/>
<path d="M63.2651 75.072C62.8871 74.643 62.4451 74.318 61.9391 74.094C61.4331 73.87 60.8791 73.759 60.2781 73.759C59.6771 73.759 59.1231 73.87 58.6171 74.094C58.1111 74.318 57.6691 74.643 57.2911 75.072C56.9131 75.501 56.6161 76.036 56.4021 76.678C56.1881 77.321 56.0811 78.066 56.0811 78.913C56.0811 79.76 56.1881 80.508 56.4021 81.155C56.6161 81.802 56.9121 82.34 57.2911 82.768C57.6691 83.197 58.1111 83.52 58.6171 83.739C59.1231 83.958 59.6771 84.067 60.2781 84.067C60.8791 84.067 61.4331 83.958 61.9391 83.739C62.4451 83.52 62.8871 83.197 63.2651 82.768C63.6431 82.339 63.9391 81.802 64.1541 81.155C64.3681 80.508 64.4751 79.76 64.4751 78.913C64.4751 78.066 64.3681 77.32 64.1541 76.678C63.9391 76.036 63.6431 75.501 63.2651 75.072ZM62.5881 80.698C62.4511 81.185 62.2621 81.58 62.0211 81.881C61.7791 82.182 61.5061 82.399 61.2011 82.53C60.8951 82.662 60.5741 82.728 60.2371 82.728C59.9091 82.728 59.5961 82.658 59.3001 82.516C59.0041 82.374 58.7391 82.152 58.5071 81.846C58.2751 81.54 58.0921 81.147 57.9601 80.663C57.8281 80.18 57.7571 79.597 57.7481 78.913C57.7571 78.211 57.8301 77.619 57.9671 77.136C58.1041 76.653 58.2931 76.259 58.5341 75.953C58.7751 75.647 59.0491 75.432 59.3541 75.304C59.6591 75.176 59.9801 75.113 60.3181 75.113C60.6461 75.113 60.9581 75.181 61.2551 75.318C61.5511 75.455 61.8161 75.678 62.0481 75.988C62.2801 76.298 62.4631 76.692 62.5951 77.171C62.7271 77.65 62.7981 78.231 62.8071 78.914C62.7971 79.616 62.7251 80.211 62.5881 80.698Z" fill="#B9C2C9"/>
<path d="M69.0624 75.954C69.3034 75.648 69.5774 75.433 69.8824 75.305C70.1874 75.177 70.5084 75.114 70.8464 75.114C71.1474 75.114 71.4364 75.174 71.7144 75.292C71.9924 75.41 72.2454 75.602 72.4734 75.866L73.6084 74.854C73.2344 74.49 72.8104 74.216 72.3374 74.034C71.8634 73.851 71.3534 73.761 70.8064 73.761C70.2134 73.761 69.6624 73.872 69.1524 74.096C68.6414 74.32 68.1974 74.645 67.8194 75.074C67.4414 75.503 67.1444 76.038 66.9304 76.68C66.7164 77.323 66.6094 78.068 66.6094 78.915C66.6094 79.762 66.7164 80.51 66.9304 81.157C67.1444 81.804 67.4404 82.342 67.8194 82.77C68.1974 83.199 68.6394 83.522 69.1454 83.741C69.6514 83.96 70.2054 84.069 70.8064 84.069C71.3534 84.069 71.8634 83.978 72.3374 83.796C72.8114 83.613 73.2344 83.34 73.6084 82.976L72.4734 81.978C72.2364 82.243 71.9744 82.434 71.6874 82.552C71.4004 82.67 71.0924 82.73 70.7644 82.73C70.4364 82.73 70.1234 82.66 69.8274 82.518C69.5314 82.376 69.2664 82.154 69.0344 81.848C68.8024 81.542 68.6194 81.149 68.4874 80.665C68.3554 80.182 68.2844 79.599 68.2754 78.915C68.2844 78.213 68.3574 77.621 68.4944 77.138C68.6314 76.655 68.8204 76.26 69.0624 75.954Z" fill="#B9C2C9"/>
<path d="M43.5 44H49.5C50.052 44 50.5 43.552 50.5 43C50.5 42.448 50.052 42 49.5 42H43.5C42.948 42 42.5 42.448 42.5 43C42.5 43.552 42.948 44 43.5 44Z" fill="#B9C2C9"/>
<path d="M43.5 49H52.5C53.052 49 53.5 48.552 53.5 48C53.5 47.448 53.052 47 52.5 47H43.5C42.948 47 42.5 47.448 42.5 48C42.5 48.552 42.948 49 43.5 49Z" fill="#B9C2C9"/>
<path d="M56.5 49C56.76 49 57.02 48.89 57.21 48.71C57.39 48.52 57.5 48.26 57.5 48C57.5 47.74 57.39 47.48 57.21 47.29C56.84 46.92 56.16 46.92 55.79 47.29C55.61 47.48 55.5 47.74 55.5 48C55.5 48.26 55.61 48.52 55.79 48.71C55.98 48.89 56.24 49 56.5 49Z" fill="#B9C2C9"/>
<path d="M60.5 49H68.5C69.052 49 69.5 48.552 69.5 48C69.5 47.448 69.052 47 68.5 47H60.5C59.948 47 59.5 47.448 59.5 48C59.5 48.552 59.948 49 60.5 49Z" fill="#B9C2C9"/>
<path d="M42.79 62.29C42.61 62.48 42.5 62.74 42.5 63C42.5 63.26 42.61 63.52 42.79 63.71C42.98 63.89 43.24 64 43.5 64C43.76 64 44.02 63.89 44.21 63.71C44.39 63.52 44.5 63.26 44.5 63C44.5 62.73 44.39 62.48 44.21 62.29C43.84 61.92 43.16 61.92 42.79 62.29Z" fill="#B9C2C9"/>
<path d="M55.5 62H47.5C46.948 62 46.5 62.448 46.5 63C46.5 63.552 46.948 64 47.5 64H55.5C56.052 64 56.5 63.552 56.5 63C56.5 62.448 56.052 62 55.5 62Z" fill="#B9C2C9"/>
<path d="M74.5 47H72.5C71.948 47 71.5 47.448 71.5 48C71.5 48.552 71.948 49 72.5 49H74.5C75.052 49 75.5 48.552 75.5 48C75.5 47.448 75.052 47 74.5 47Z" fill="#B9C2C9"/>
<path d="M43.5 54H65.5C66.052 54 66.5 53.552 66.5 53C66.5 52.448 66.052 52 65.5 52H43.5C42.948 52 42.5 52.448 42.5 53C42.5 53.552 42.948 54 43.5 54Z" fill="#B9C2C9"/>
<path d="M74.5 52H68.5C67.948 52 67.5 52.448 67.5 53C67.5 53.552 67.948 54 68.5 54H74.5C75.052 54 75.5 53.552 75.5 53C75.5 52.448 75.052 52 74.5 52Z" fill="#B9C2C9"/>
<path d="M43.5 59H47.5C48.052 59 48.5 58.552 48.5 58C48.5 57.448 48.052 57 47.5 57H43.5C42.948 57 42.5 57.448 42.5 58C42.5 58.552 42.948 59 43.5 59Z" fill="#B9C2C9"/>
<path d="M61.5 57H51.5C50.948 57 50.5 57.448 50.5 58C50.5 58.552 50.948 59 51.5 59H61.5C62.052 59 62.5 58.552 62.5 58C62.5 57.448 62.052 57 61.5 57Z" fill="#B9C2C9"/>
<path d="M74.5 57H65.5C64.948 57 64.5 57.448 64.5 58C64.5 58.552 64.948 59 65.5 59H74.5C75.052 59 75.5 58.552 75.5 58C75.5 57.448 75.052 57 74.5 57Z" fill="#B9C2C9"/>
</svg>
