<svg width="112" height="112" viewBox="0 0 112 112" fill="none" xmlns="http://www.w3.org/2000/svg">
<circle cx="56" cy="56" r="56" fill="#F2F5F8"/>
<g clip-path="url(#clip0_44_574)">
<path d="M38.389 49.048V49.0485C35.8296 49.0485 33.7546 51.1233 33.7546 53.6828C33.7546 54.1233 33.8357 54.5408 33.9504 54.9443C31.8534 55.388 30.2788 57.2467 30.2788 59.4758C30.2788 60.2772 30.5007 61.0196 30.8587 61.6773C29.8067 62.5269 29.1201 63.8113 29.1201 65.269C29.1201 67.1065 30.198 68.6797 31.7484 69.4293C31.5558 69.9388 31.4373 70.485 31.4373 71.062C31.4373 73.6214 33.5123 75.6964 36.0718 75.6964H56.9267V49.0479H38.3889L38.389 49.048Z" fill="#5E342E"/>
<path d="M84.7333 65.2692C84.7333 63.8116 84.0469 62.5272 82.9948 61.6775C83.3527 61.0199 83.5746 60.2774 83.5746 59.476C83.5746 57.247 81.9999 55.3882 79.9031 54.9445C80.0177 54.5409 80.0989 54.1235 80.0989 53.683C80.0989 51.1235 78.0239 49.0487 75.4644 49.0487V49.0482H56.9268V75.6966H77.7817C80.3411 75.6966 82.4161 73.6216 82.4161 71.0621C82.4161 70.4853 82.2977 69.939 82.1051 69.4295C83.6553 68.6799 84.7332 67.1065 84.7332 65.2692H84.7333Z" fill="#734A3E"/>
<path d="M78.4157 85.6645L77.0851 75.6849C76.9583 74.7342 76.6002 73.8508 76.0644 73.0968C76.3126 72.5666 76.1261 71.9224 75.6114 71.6135L71.8057 69.33C71.2641 69.0049 70.562 69.1737 70.2271 69.7095L70.1469 69.8377L65.4628 68.1142C64.5166 67.7988 63.8784 66.9134 63.8784 65.9159V62.1793L68.8693 60.0997C71.4598 59.0203 73.1473 56.4893 73.1473 53.6828V43.2554C73.1473 40.0561 70.5537 35.1452 67.3544 35.1452H46.4996C43.3003 35.1452 40.7066 40.0561 40.7066 43.2554V53.6828C40.7066 56.4893 42.394 59.0203 44.9845 60.0997L49.9756 62.1795V65.9161C49.9756 66.9135 49.3373 67.799 48.3912 68.1144L43.7071 69.8379L43.6269 69.7096C43.2922 69.174 42.59 69.0053 42.0483 69.3302L38.2425 71.6137C37.7277 71.9225 37.5412 72.5668 37.7896 73.097C37.2541 73.851 36.8956 74.7344 36.7689 75.6851L35.4383 85.6646C35.1605 87.7484 36.7816 89.5998 38.8836 89.5998H74.9704C77.0725 89.5996 78.6937 87.7483 78.4157 85.6645V85.6645Z" fill="#F7C08F"/>
<path d="M63.8784 62.0824H49.9752V65.9163C49.9752 66.7407 49.5383 67.488 48.8525 67.9005C58.545 69.5748 63.8784 62.0824 63.8784 62.0824V62.0824Z" fill="#EDB68E"/>
<path d="M68.8691 60.0998L61.3824 63.2193C59.9703 63.8076 58.4558 64.1105 56.9263 64.1105C55.3966 64.1105 53.8822 63.8074 52.4701 63.2193L44.9839 60.1001C42.3935 59.0207 40.7061 56.4897 40.7061 53.6832V43.2558C40.7061 40.0565 43.2997 35.1455 46.499 35.1455H67.3538C70.5531 35.1455 73.1468 40.0565 73.1468 43.2558V53.6832C73.1468 56.4895 71.4594 59.0207 68.8689 60.0999L68.8691 60.0998Z" fill="#FFD5A8"/>
<path d="M48.8167 50.2073C48.1794 50.2073 47.6582 49.6858 47.6582 49.0487V47.8902C47.6582 47.2529 48.1796 46.7317 48.8167 46.7317C49.454 46.7317 49.9753 47.2531 49.9753 47.8902V49.0487C49.9753 49.6858 49.4538 50.2073 48.8167 50.2073Z" fill="#623F33"/>
<path d="M65.0365 50.2073C64.3992 50.2073 63.8779 49.6858 63.8779 49.0487V47.8902C63.8779 47.2529 64.3993 46.7317 65.0365 46.7317C65.6737 46.7317 66.195 47.2531 66.195 47.8902V49.0487C66.195 49.6858 65.6736 50.2073 65.0365 50.2073Z" fill="#623F33"/>
<path d="M56.927 58.3491C54.8672 58.3491 52.9405 57.8423 51.6408 56.958C51.112 56.5982 50.9744 55.8774 51.3347 55.3485C51.6939 54.8202 52.4153 54.6826 52.9442 55.0424C53.8551 55.6619 55.3439 56.0319 56.9268 56.0319C58.5097 56.0319 59.9987 55.6619 60.9096 55.0424C61.4396 54.6814 62.1592 54.8195 62.5191 55.3485C62.8794 55.8774 62.742 56.5982 62.2129 56.958C60.9136 57.8421 58.9867 58.3491 56.9268 58.3491H56.927Z" fill="#EDB68E"/>
<path d="M56.9263 31.6696C56.9263 31.6696 53.692 35.7723 46.2094 40.3585C43.9089 41.7684 40.7061 44.7973 40.7061 47.5997V53.6828C40.7061 56.4893 42.3935 59.0203 44.9839 60.0997L52.4699 63.2189C52.8363 63.3715 53.2102 63.503 53.589 63.617C50.2806 61.1968 48.0784 59.0811 46.7879 57.6976C45.8491 56.6912 45.3403 55.3629 45.3403 53.9864L45.3405 45.8774C48.9101 41.9554 59.0782 38.6211 59.2437 35.145C59.3574 32.759 56.9265 31.6691 56.9265 31.6691L56.9263 31.6696Z" fill="#F7C08F"/>
<path d="M70.227 69.7097L66.0581 76.38C65.4228 77.3962 64.309 78.0137 63.1107 78.0137H50.7431C49.5446 78.0137 48.4308 77.3964 47.7957 76.38L43.6268 69.7097C43.292 69.174 42.5899 69.0053 42.0481 69.3302L38.2424 71.6137C37.6867 71.9471 37.5124 72.6716 37.856 73.2213L43.0237 81.4898H70.8301L75.9978 73.2213C76.3414 72.6716 76.1672 71.9473 75.6114 71.6137L71.8057 69.3302C71.2641 69.0053 70.5618 69.174 70.2272 69.7097H70.227Z" fill="#EB41A4"/>
<path d="M70.8298 81.4894H43.0234V89.5997H70.8298V81.4894Z" fill="#FA55B5"/>
<path d="M40.706 50.3514C40.706 50.3032 40.706 50.2557 40.706 50.2071C40.706 43.0625 56.9265 37.2693 56.9265 33.9867V23.5592C56.9265 23.5592 56.4477 22.4435 53.4507 22.4007C51.8799 22.3782 48.8525 23.0524 46.499 24.7179C39.4521 29.7051 36.6511 41.0951 35.5576 50.3514H40.706V50.3514Z" fill="#5E342E"/>
<path d="M73.1472 50.2073C73.1472 50.2559 73.1472 50.3033 73.1472 50.3516H78.2956C77.2021 41.0952 74.4013 29.7053 67.3542 24.7181C65.0007 23.0526 61.9734 22.3783 60.4025 22.4009C57.4053 22.4437 56.9268 23.5594 56.9268 23.5594V33.9868C56.9268 37.2695 73.1472 43.0626 73.1472 50.2073V50.2073Z" fill="#734A3E"/>
</g>
<defs>
<clipPath id="clip0_44_574">
<rect width="55.613" height="67.2" fill="white" transform="translate(29.1201 22.4)"/>
</clipPath>
</defs>
</svg>
