<svg width="30" height="31" viewBox="0 0 30 31" fill="none" xmlns="http://www.w3.org/2000/svg">
<path d="M29.3938 14.6835L15.3313 0.606229C15.2434 0.51826 15.1242 0.468842 14.9999 0.468842C14.8756 0.468842 14.7564 0.51826 14.6685 0.606229L0.605994 14.6835C0.540458 14.7491 0.49583 14.8327 0.477752 14.9237C0.459673 15.0147 0.468956 15.109 0.504426 15.1948C0.539896 15.2805 0.599962 15.3538 0.677029 15.4053C0.754096 15.4569 0.844705 15.4844 0.9374 15.4844H3.28115V26.7462H2.8124C2.68808 26.7462 2.56885 26.7957 2.48094 26.8837C2.39304 26.9717 2.34365 27.091 2.34365 27.2155V29.0924C2.34365 29.2169 2.39304 29.3362 2.48094 29.4242C2.56885 29.5122 2.68808 29.5617 2.8124 29.5617H27.1874C27.3117 29.5617 27.431 29.5122 27.5189 29.4242C27.6068 29.3362 27.6562 29.2169 27.6562 29.0924V27.2155C27.6562 27.091 27.6068 26.9717 27.5189 26.8837C27.431 26.7957 27.3117 26.7462 27.1874 26.7462H26.7187V15.4844H29.0624C29.1551 15.4844 29.2457 15.4569 29.3228 15.4053C29.3998 15.3538 29.4599 15.2805 29.4954 15.1948C29.5308 15.109 29.5401 15.0147 29.5221 14.9237C29.504 14.8327 29.4593 14.7491 29.3938 14.6835ZM26.7187 28.6232H3.28115V27.6847H26.7187V28.6232ZM17.711 26.7462H12.086V18.2999H17.711V26.7462ZM18.6485 26.7462V17.8307C18.6485 17.7062 18.5992 17.5868 18.5113 17.4988C18.4233 17.4108 18.3041 17.3614 18.1798 17.3614H11.6173C11.493 17.3614 11.3738 17.4108 11.2858 17.4988C11.1979 17.5868 11.1485 17.7062 11.1485 17.8307V26.7462H4.21865V15.2095L14.9999 4.41693L25.7812 15.2095V26.7462H18.6485ZM26.444 14.546L15.3313 3.42167C15.2434 3.3337 15.1242 3.28429 14.9999 3.28429C14.8756 3.28429 14.7564 3.3337 14.6685 3.42167L3.55584 14.546H2.06896L14.9999 1.60149L27.9308 14.546H26.444Z" fill="white"/>
</svg>
