<svg width="117" height="117" viewBox="0 0 117 117" fill="none" xmlns="http://www.w3.org/2000/svg">
<rect width="117" height="117" rx="10" fill="#F2F5F8"/>
<path d="M80.949 42.187L75.131 36.369L70.084 31.321L69.314 30.551C68.964 30.201 68.48 30 67.985 30H38.963C37.777 30 36.5 30.916 36.5 32.926V69V85.537V86C36.5 86.837 37.342 87.653 38.338 87.91C38.388 87.923 38.436 87.942 38.488 87.952C38.644 87.983 38.803 88 38.963 88H79.037C79.197 88 79.356 87.983 79.512 87.952C79.564 87.942 79.613 87.923 79.664 87.909C80.659 87.652 81.5 86.837 81.5 86V85.537V69V43.978C81.5 43.211 81.407 42.644 80.949 42.187ZM77.935 42H69.5V33.565L73.748 37.814L77.935 42ZM38.963 32H67.558C67.525 32.126 67.5 32.256 67.5 32.391V44H79.108C79.243 44 79.373 43.975 79.499 43.942C79.499 43.957 79.5 43.963 79.5 43.978V56.671L71.189 48.775C70.994 48.59 70.744 48.491 70.464 48.501C70.195 48.511 69.943 48.628 69.761 48.826L59.966 59.553L55.223 54.81C54.854 54.441 54.265 54.418 53.868 54.755L38.5 67.836V32.926C38.5 32.709 38.533 32 38.963 32ZM38.963 86C38.892 86 38.828 85.974 38.765 85.951C38.609 85.877 38.5 85.721 38.5 85.537V71H79.5V85.537C79.5 85.721 79.39 85.877 79.235 85.951C79.172 85.975 79.108 86 79.037 86H38.963ZM40.218 69L54.463 56.876L64.776 67.19C65.167 67.581 65.799 67.581 66.19 67.19C66.581 66.799 66.581 66.167 66.19 65.776L61.383 60.969L70.551 50.928L79.5 59.429V69H40.218Z" fill="#B9C2C9"/>
<path d="M49.3544 81.43C49.3354 81.876 49.1834 82.194 48.8964 82.38C48.6094 82.566 48.2244 82.66 47.7414 82.66C47.5504 82.66 47.3454 82.638 47.1264 82.592C46.9074 82.546 46.6974 82.494 46.4974 82.435C46.2964 82.375 46.1124 82.312 45.9434 82.244C45.7744 82.176 45.6444 82.109 45.5534 82.046L44.8564 83.153C45.0384 83.29 45.2614 83.413 45.5264 83.522C45.7904 83.631 46.0664 83.729 46.3534 83.816C46.6404 83.903 46.9184 83.966 47.1874 84.007C47.4564 84.048 47.6904 84.069 47.8914 84.069C48.2924 84.069 48.6824 84.03 49.0604 83.953C49.4384 83.876 49.7734 83.739 50.0654 83.543C50.3574 83.347 50.5894 83.087 50.7624 82.764C50.9354 82.441 51.0224 82.041 51.0224 81.568V73.72H49.3544V81.43V81.43Z" fill="#B9C2C9"/>
<path d="M58.7667 74.744C58.4337 74.471 58.0577 74.265 57.6387 74.129C57.2197 73.992 56.7957 73.924 56.3677 73.924H53.4697V84H55.1107V80.363H56.3277C56.8557 80.363 57.3397 80.286 57.7767 80.131C58.2137 79.976 58.5877 79.757 58.8977 79.475C59.2077 79.193 59.4487 78.844 59.6227 78.429C59.7957 78.014 59.8827 77.552 59.8827 77.041C59.8827 76.558 59.7797 76.123 59.5747 75.735C59.3697 75.347 59.0987 75.018 58.7667 74.744ZM58.1447 78.073C58.0437 78.351 57.9127 78.567 57.7487 78.722C57.5847 78.877 57.4047 78.989 57.2087 79.057C57.0127 79.125 56.8137 79.16 56.6137 79.16H55.1097V75.168H56.3397C56.7587 75.168 57.0957 75.234 57.3517 75.366C57.6067 75.498 57.8047 75.662 57.9467 75.858C58.0877 76.054 58.1807 76.259 58.2267 76.473C58.2717 76.687 58.2947 76.876 58.2947 77.04C58.2947 77.451 58.2447 77.795 58.1447 78.073Z" fill="#B9C2C9"/>
<path d="M65.7601 79.926H67.4692V82.414C67.3962 82.515 67.2821 82.592 67.1271 82.646C66.9721 82.701 66.8101 82.744 66.6421 82.776C66.4731 82.808 66.3052 82.831 66.1362 82.844C65.9672 82.858 65.8332 82.865 65.7332 82.865C65.4052 82.865 65.0922 82.788 64.7962 82.633C64.5002 82.478 64.2351 82.241 64.0031 81.922C63.7711 81.603 63.5882 81.193 63.4562 80.692C63.3242 80.191 63.2531 79.598 63.2441 78.915C63.2531 78.213 63.3262 77.621 63.4632 77.138C63.6002 76.655 63.7891 76.261 64.0301 75.955C64.2711 75.649 64.5451 75.434 64.8501 75.306C65.1551 75.178 65.4761 75.115 65.8141 75.115C66.1151 75.115 66.4061 75.175 66.6891 75.293C66.9711 75.411 67.2222 75.603 67.4412 75.867L68.5761 74.855C68.2021 74.491 67.7781 74.217 67.3051 74.035C66.8311 73.852 66.3211 73.762 65.7741 73.762C65.1811 73.762 64.6301 73.873 64.1201 74.097C63.6091 74.321 63.1651 74.646 62.7871 75.075C62.4091 75.504 62.1121 76.039 61.8981 76.681C61.6841 77.324 61.5771 78.069 61.5771 78.916C61.5771 79.763 61.6841 80.511 61.8981 81.158C62.1121 81.805 62.4081 82.343 62.7871 82.771C63.1651 83.2 63.6071 83.523 64.1131 83.742C64.6191 83.961 65.1731 84.07 65.7741 84.07C66.0751 84.07 66.3781 84.048 66.6831 84.002C66.9881 83.956 67.2851 83.879 67.5721 83.77C67.8591 83.661 68.1331 83.522 68.3921 83.353C68.6511 83.184 68.8861 82.968 69.0961 82.704V78.808H65.7601V79.926Z" fill="#B9C2C9"/>
<path d="M49.069 53.638C52.14 53.638 54.638 51.14 54.638 48.069C54.638 44.998 52.14 42.5 49.069 42.5C45.998 42.5 43.5 44.998 43.5 48.069C43.5 51.14 45.998 53.638 49.069 53.638ZM49.069 44.5C51.037 44.5 52.638 46.101 52.638 48.069C52.638 50.037 51.037 51.638 49.069 51.638C47.101 51.638 45.5 50.037 45.5 48.069C45.5 46.101 47.101 44.5 49.069 44.5Z" fill="#B9C2C9"/>
</svg>
