<svg width="117" height="117" viewBox="0 0 117 117" fill="none" xmlns="http://www.w3.org/2000/svg">
<rect width="117" height="117" rx="10" fill="#F2F5F8"/>
<path d="M80.95 42.187L80.179 41.416L70.084 31.321L69.313 30.55C68.964 30.201 68.48 30 67.985 30H38.963C37.777 30 36.5 30.916 36.5 32.926V69V85.537V86C36.5 86.837 37.342 87.653 38.338 87.91C38.388 87.923 38.436 87.942 38.488 87.952C38.644 87.983 38.803 88 38.963 88H79.037C79.197 88 79.356 87.983 79.512 87.952C79.564 87.942 79.612 87.923 79.662 87.91C80.658 87.653 81.5 86.837 81.5 86V85.537V69V43.978C81.5 43.211 81.408 42.645 80.95 42.187ZM77.935 42H69.5V33.565L77.935 42ZM38.963 86C38.892 86 38.828 85.974 38.765 85.951C38.609 85.877 38.5 85.721 38.5 85.537V71H79.5V85.537C79.5 85.721 79.391 85.876 79.235 85.951C79.172 85.974 79.108 86 79.037 86H38.963ZM38.5 69V32.926C38.5 32.709 38.533 32 38.963 32H67.558C67.525 32.126 67.5 32.256 67.5 32.391V44H79.109C79.244 44 79.373 43.975 79.499 43.942C79.499 43.957 79.5 43.963 79.5 43.978V69H38.5Z" fill="#B9C2C9"/>
<path d="M52.0421 74.744C51.7091 74.471 51.3331 74.265 50.9141 74.129C50.4951 73.992 50.0711 73.924 49.6431 73.924H46.7451V84H48.3861V80.363H49.6031C50.1311 80.363 50.6151 80.286 51.0521 80.131C51.4891 79.976 51.8631 79.757 52.1731 79.475C52.4831 79.193 52.7241 78.844 52.8981 78.429C53.0711 78.014 53.1581 77.552 53.1581 77.041C53.1581 76.558 53.0551 76.123 52.8501 75.735C52.6451 75.347 52.3751 75.018 52.0421 74.744ZM51.4201 78.073C51.3191 78.351 51.1881 78.567 51.0241 78.722C50.8601 78.877 50.6801 78.989 50.4841 79.057C50.2881 79.125 50.0891 79.16 49.8891 79.16H48.3851V75.168H49.6151C50.0341 75.168 50.3711 75.234 50.6271 75.366C50.8821 75.498 51.0801 75.662 51.2221 75.858C51.3631 76.054 51.4561 76.259 51.5021 76.473C51.5471 76.687 51.5701 76.876 51.5701 77.04C51.5701 77.451 51.5201 77.795 51.4201 78.073Z" fill="#B9C2C9"/>
<path d="M61.954 75.4C61.53 74.954 60.997 74.595 60.354 74.327C59.711 74.059 58.966 73.924 58.119 73.924H55.084V84H58.898C59.025 84 59.221 83.984 59.486 83.952C59.75 83.92 60.042 83.848 60.361 83.733C60.68 83.619 61.01 83.448 61.352 83.22C61.694 82.992 62.001 82.68 62.275 82.283C62.549 81.886 62.774 81.394 62.952 80.806C63.13 80.218 63.219 79.509 63.219 78.68C63.219 78.078 63.114 77.492 62.905 76.923C62.694 76.355 62.378 75.847 61.954 75.4ZM60.758 81.73C60.266 82.441 59.464 82.796 58.352 82.796H56.725V75.167H57.682C58.466 75.167 59.104 75.27 59.596 75.475C60.088 75.68 60.478 75.949 60.765 76.282C61.052 76.615 61.245 76.986 61.346 77.396C61.446 77.806 61.496 78.221 61.496 78.64C61.496 79.989 61.25 81.02 60.758 81.73Z" fill="#B9C2C9"/>
<path d="M65.5977 84H67.2657V79.461H71.4767V78.34H67.2657V75.168H71.8997V73.924H65.5977V84Z" fill="#B9C2C9"/>
<path d="M68.4277 52.961C67.5087 52.961 66.3807 53.081 65.0697 53.319C63.2397 51.377 61.3297 48.541 59.9817 45.757C61.3187 40.128 60.6497 39.331 60.3547 38.955C60.0407 38.555 59.5977 37.906 59.0937 37.906C58.8827 37.906 58.3067 38.002 58.0777 38.078C57.5017 38.27 57.1917 38.714 56.9437 39.293C56.2367 40.946 57.2067 43.764 58.2047 45.936C57.3517 49.329 55.9207 53.39 54.4167 56.686C50.6267 58.422 48.6137 60.127 48.4317 61.754C48.3657 62.346 48.5057 63.215 49.5467 63.996C49.8317 64.209 50.1657 64.322 50.5137 64.322C51.3887 64.322 52.2727 63.652 53.2957 62.215C54.0417 61.167 54.8427 59.738 55.6787 57.964C58.3567 56.793 61.6697 55.735 64.5067 55.142C66.0867 56.659 67.5017 57.427 68.7177 57.427C69.6137 57.427 70.3817 57.015 70.9377 56.236C71.5167 55.425 71.6487 54.699 71.3277 54.076C70.9427 53.327 69.9937 52.961 68.4277 52.961ZM50.5357 62.634C50.0677 62.275 50.0947 62.033 50.1047 61.942C50.1667 61.386 51.0377 60.399 53.1747 59.198C51.5547 62.19 50.6847 62.587 50.5357 62.634ZM58.7357 39.712C58.7787 39.698 59.7807 40.813 58.8317 42.928C57.4057 41.469 58.6377 39.745 58.7357 39.712ZM56.6687 55.738C57.6837 53.319 58.6277 50.648 59.3427 48.174C60.4657 50.192 61.8147 52.15 63.1647 53.718C61.0307 54.219 58.7587 54.926 56.6687 55.738ZM69.5697 55.259C69.2617 55.69 68.5937 55.7 68.3597 55.7C67.8267 55.7 67.6277 55.383 66.8127 54.756C67.4847 54.67 68.1187 54.648 68.6237 54.648C69.5127 54.648 69.6757 54.779 69.7987 54.845C69.7767 54.916 69.7187 55.05 69.5697 55.259Z" fill="#B9C2C9"/>
</svg>
