<svg width="117" height="117" viewBox="0 0 117 117" fill="none" xmlns="http://www.w3.org/2000/svg">
<rect width="117" height="117" rx="10" fill="#F2F5F8"/>
<path d="M80.95 42.187L80.179 41.416L70.084 31.321L69.313 30.55C68.964 30.201 68.48 30 67.985 30H38.963C37.777 30 36.5 30.916 36.5 32.926V69V85.537V86C36.5 86.837 37.342 87.653 38.338 87.91C38.388 87.923 38.436 87.942 38.488 87.952C38.644 87.983 38.803 88 38.963 88H79.037C79.197 88 79.356 87.983 79.512 87.952C79.564 87.942 79.612 87.923 79.662 87.91C80.658 87.653 81.5 86.837 81.5 86V85.537V69V43.978C81.5 43.211 81.408 42.645 80.95 42.187ZM77.935 42H69.5V33.565L77.935 42ZM38.963 86C38.892 86 38.828 85.974 38.765 85.951C38.609 85.877 38.5 85.721 38.5 85.537V71H79.5V85.537C79.5 85.721 79.391 85.876 79.235 85.951C79.172 85.974 79.108 86 79.037 86H38.963ZM38.5 69V32.926C38.5 32.709 38.533 32 38.963 32H67.558C67.525 32.126 67.5 32.256 67.5 32.391V44H79.109C79.244 44 79.373 43.975 79.499 43.942C79.499 43.957 79.5 43.963 79.5 43.978V69H38.5Z" fill="#B9C2C9"/>
<path d="M52.2267 73.924L50.2987 78.025H50.1617L48.3847 73.924H46.5117L49.2317 79.105L46.6757 84H48.5757L50.2987 80.199H50.4357L52.0347 84H53.9357L51.3787 79.105L54.0997 73.924H52.2267Z" fill="#B9C2C9"/>
<path d="M58.0371 73.924H56.3691V84H62.6721V82.756H58.0371V73.924Z" fill="#B9C2C9"/>
<path d="M68.9404 79.064C68.6264 78.836 68.2864 78.642 67.9214 78.483C67.5564 78.324 67.2194 78.16 66.9094 77.991C66.5994 77.822 66.3394 77.627 66.1304 77.403C65.9204 77.179 65.8164 76.885 65.8164 76.521C65.8164 76.375 65.8524 76.222 65.9254 76.063C65.9984 75.904 66.0984 75.76 66.2264 75.632C66.3534 75.504 66.4994 75.398 66.6644 75.311C66.8294 75.224 67.0014 75.172 67.1844 75.154C67.5124 75.127 67.7814 75.122 67.9914 75.14C68.2004 75.159 68.3694 75.19 68.4974 75.236C68.6244 75.282 68.7234 75.327 68.7914 75.373C68.8594 75.419 68.9214 75.455 68.9764 75.482C68.9854 75.473 69.0124 75.427 69.0584 75.345C69.1034 75.263 69.1584 75.16 69.2224 75.037C69.2854 74.914 69.3544 74.782 69.4274 74.641C69.5004 74.499 69.5644 74.37 69.6184 74.251C69.3534 74.078 69.0074 73.952 68.5794 73.875C68.1504 73.798 67.7264 73.759 67.3084 73.759C66.8984 73.759 66.5084 73.822 66.1394 73.95C65.7704 74.078 65.4464 74.263 65.1684 74.504C64.8904 74.745 64.6694 75.039 64.5054 75.386C64.3414 75.733 64.2594 76.129 64.2594 76.575C64.2594 77.067 64.3634 77.477 64.5734 77.805C64.7824 78.133 65.0474 78.418 65.3664 78.659C65.6854 78.9 66.0274 79.11 66.3914 79.288C66.7554 79.466 67.0954 79.643 67.4104 79.821C67.7254 79.999 67.9864 80.197 68.1964 80.416C68.4054 80.635 68.5104 80.899 68.5104 81.209C68.5104 81.72 68.3624 82.105 68.0664 82.364C67.7704 82.624 67.3434 82.754 66.7884 82.754C66.6054 82.754 66.4104 82.735 66.2004 82.699C65.9904 82.663 65.7814 82.615 65.5714 82.555C65.3614 82.495 65.1584 82.432 64.9634 82.364C64.7674 82.296 64.6054 82.225 64.4784 82.152L64.1914 83.328C64.3464 83.465 64.5304 83.581 64.7454 83.677C64.9594 83.773 65.1844 83.848 65.4224 83.903C65.6594 83.958 65.8944 83.997 66.1264 84.019C66.3584 84.041 66.5844 84.053 66.8034 84.053C67.3134 84.053 67.7694 83.976 68.1704 83.821C68.5714 83.666 68.9084 83.459 69.1824 83.199C69.4564 82.939 69.6674 82.638 69.8184 82.297C69.9694 81.956 70.0444 81.602 70.0444 81.237C70.0444 80.699 69.9394 80.259 69.7304 79.918C69.5174 79.577 69.2554 79.292 68.9404 79.064Z" fill="#B9C2C9"/>
<path d="M54.5 43H42.5V47V49V51V53V55V57V59V61V65H52.5H54.5H75.5V61V59V57V55V53V51V47H54.5V43ZM44.5 49H52.5V51H44.5V49ZM44.5 53H52.5V55H44.5V53ZM44.5 57H52.5V59H44.5V57ZM52.5 63H44.5V61H52.5V63ZM73.5 63H54.5V61H73.5V63ZM73.5 59H54.5V57H73.5V59ZM73.5 55H54.5V53H73.5V55ZM73.5 49V51H54.5V49H73.5ZM44.5 47V45H52.5V47H44.5Z" fill="#B9C2C9"/>
</svg>
